<?xml version="1.0" encoding="utf-8"?>
<!-- Generator: Adobe Illustrator 17.0.0, SVG Export Plug-In . SVG Version: 6.00 Build 0)  -->
<!DOCTYPE svg PUBLIC "-//W3C//DTD SVG 1.1//EN" "http://www.w3.org/Graphics/SVG/1.1/DTD/svg11.dtd">
<svg version="1.1" id="Layer_1" xmlns="http://www.w3.org/2000/svg" xmlns:xlink="http://www.w3.org/1999/xlink" x="0px" y="0px"
	 width="299.898px" height="182.113px" viewBox="0 0 299.898 182.113" enable-background="new 0 0 299.898 182.113"
	 xml:space="preserve">
<g>
	<g>
		<g>
			<g>
				<path fill="#00703C" d="M18.018,158.17l-0.43-0.084c-6.512-1.21-10.779-2.288-10.779-6.094c0-6.441,9.379-6.627,10.444-6.627
					c4.055,0.05,8.153,0.65,10.649,4.658l0.593,0.957l4.43-2.619l-0.678-1.011c-3.909-5.834-8.815-7.029-14.979-7.029
					c-5.366,0-10.191,1.655-12.909,4.428c-1.927,1.965-2.872,4.441-2.81,7.351c0,8.033,8.029,9.604,15.118,10.991
					c7.073,1.35,11.706,2.572,11.66,7.082c0,6.276-7.734,6.954-11.059,6.954c-4.404,0-9.961-2.172-12.063-6.323l-0.518-1.025
					L0,172.126l0.518,1.03c3.334,6.604,10.837,8.957,16.749,8.957c3.811,0,16.252-0.856,16.325-11.887
					C33.592,161.162,25.317,159.572,18.018,158.17z"/>
				<path fill="#00703C" d="M68.366,165.842c0,7.692-5.515,11.195-10.64,11.195c-5.109,0-10.607-3.503-10.607-11.195v-24.976h-5.206
					v24.976c0,11.136,8.198,16.208,15.814,16.208c7.632,0,15.846-5.072,15.846-16.208v-24.976h-5.206V165.842z"/>
				<path fill="#00703C" d="M102.545,145.364c4.25,0,8.201,1.611,11.123,4.536l0.755,0.759l3.775-3.263l-0.874-0.878
					c-3.925-3.925-9.173-6.087-14.779-6.087c-6.106,0-11.316,2.004-15.067,5.796c-3.803,3.845-5.865,9.24-5.804,15.191
					c0.055,10.22,6.529,20.533,20.871,20.533c5.604,0,10.852-2.163,14.779-6.089l0.839-0.84l-3.641-3.437l-0.789,0.778
					c-2.941,2.888-7.019,4.544-11.188,4.544c-11.462,0-15.631-8.411-15.719-15.613c-0.027-4.672,1.521-8.817,4.355-11.671
					C93.955,146.837,97.886,145.364,102.545,145.364z"/>
				<path fill="#00703C" d="M143.416,141.071l-0.092-0.204h-4.722l-18.011,40.155l-0.218,0.488h5.704l4.162-9.419h21.397
					l4.216,9.419h5.703L143.416,141.071z M149.466,167.047h-17.058l8.528-19.326L149.466,167.047z"/>
			</g>
			<g>
				<polygon fill="#551900" points="167.33,181.566 172.595,181.566 172.595,164.203 194.663,164.203 194.663,159.107 
					172.595,159.107 172.595,146.132 195.432,146.132 195.432,140.866 167.33,140.866 				"/>
				<rect x="204.628" y="140.866" fill="#551900" width="5.208" height="40.643"/>
				<polygon fill="#551900" points="247.457,170.493 223.361,140.866 220.404,140.866 220.404,181.509 225.663,181.509 
					225.663,151.936 249.711,181.382 249.815,181.509 252.667,181.509 252.667,140.866 247.457,140.866 				"/>
				<path fill="#551900" d="M281.762,141.071l-0.092-0.204h-4.722l-18.011,40.155l-0.218,0.488h5.703l4.164-9.419h21.396
					l4.216,9.419h5.7L281.762,141.071z M287.811,167.047h-17.056l8.525-19.326L287.811,167.047z"/>
			</g>
		</g>
	</g>
	<g>
		<linearGradient id="SVGID_1_" gradientUnits="userSpaceOnUse" x1="195.0861" y1="56.2823" x2="84.5258" y2="56.2823">
			<stop  offset="0.2515" style="stop-color:#551900"/>
			<stop  offset="0.8834" style="stop-color:#00703C"/>
		</linearGradient>
		<path fill="url(#SVGID_1_)" d="M126.471,16.895c19.551-7.991,41.039-3.79,56.062,9.045c4.389-0.589,8.629-0.513,12.553,0.249
			C179.262,3.241,149.104-6.457,122.244,4.523C91.236,17.195,76.378,52.606,89.05,83.608c5.131,12.548,13.987,22.453,24.765,28.957
			c0.019-0.598,0.17-1.191,0.422-1.726c-7.569-5.707-13.752-13.455-17.597-22.865C85.251,60.107,98.605,28.284,126.471,16.895z"/>
		
			<linearGradient id="SVGID_2_" gradientUnits="userSpaceOnUse" x1="3376.2422" y1="43.0346" x2="3388.1641" y2="43.0346" gradientTransform="matrix(-1 0 0 1 3510.2703 0)">
			<stop  offset="0.2515" style="stop-color:#00703C"/>
			<stop  offset="0.8834" style="stop-color:#79AA41"/>
		</linearGradient>
		<path fill-rule="evenodd" clip-rule="evenodd" fill="url(#SVGID_2_)" d="M130.124,60.556c1.577-1.605,3.031-6.162,3.445-8.269
			c2.468-12.353-5.818-20.113-5.661-26.773c-0.644,0.687-1.848,3.182-2.276,4.018c-1.894,3.69-3.512,8.559-3.526,12.561
			c-0.008,3.588,1.128,5.696,2.89,9.081C126.022,53.163,129.061,58.999,130.124,60.556"/>
		<g>
			<radialGradient id="SVGID_3_" cx="146.7828" cy="95.7436" r="46.7007" gradientUnits="userSpaceOnUse">
				<stop  offset="0" style="stop-color:#CB8C5F"/>
				<stop  offset="1" style="stop-color:#551900"/>
			</radialGradient>
			<path fill="url(#SVGID_3_)" d="M151.193,117.368c13.635,1.45,30.372-4.756,44.015-17.681
				c19.683-18.644,25.769-44.464,14.396-59.062c-7.003,0.672-18.233,4.474-28.705,19.885c-3.542,5.209-6.456,9.847-9.032,13.938
				c-7.598,12.075-13.533,20.587-24.7,27.839c0.16,0.674,3.845,14.449,3.967,14.974"/>
			<radialGradient id="SVGID_4_" cx="132.6838" cy="77.2646" r="48.0324" gradientUnits="userSpaceOnUse">
				<stop  offset="0" style="stop-color:#CB8C5F"/>
				<stop  offset="1" style="stop-color:#551900"/>
			</radialGradient>
			<path fill="url(#SVGID_4_)" d="M140.215,75.571c1.789,3.354,4.338,12.764,6.205,20.241c8.981-6.367,13.614-13.714,20.517-24.687
				c2.6-4.127,5.545-8.806,9.138-14.095c9.698-14.273,20.173-19.647,28.21-21.47c-14.353-10.084-38.958-4.999-57.718,12.772
				c-5.645,5.346-10.164,11.283-13.481,17.375C135.99,68.842,138.312,72.014,140.215,75.571z"/>
		</g>
		<g>
			<linearGradient id="SVGID_5_" gradientUnits="userSpaceOnUse" x1="102.2174" y1="80.1748" x2="144.8526" y2="80.1748">
				<stop  offset="0.2515" style="stop-color:#00703C"/>
				<stop  offset="0.8834" style="stop-color:#79AA41"/>
			</linearGradient>
			<path fill-rule="evenodd" clip-rule="evenodd" fill="url(#SVGID_5_)" d="M106.249,57.601c0.996,2.963,1.897,6.264,2.595,9.574
				c1.223,5.698,1.353,8.167,2.319,12.411c2.5,0.856,4.806,1.755,6.413,2.487c5.599,2.55,9.747,5.093,13.284,8.505
				c2.963,2.868,9.766,14.043,12.152,18.018c0.284,0.475,1.05,1.745,1.84,3.086c-0.557-2.402-1.315-5.333-1.548-6.35
				c-1.437-6.138-5.574-23.431-8.134-28.246c-3.066-5.724-7.206-10.449-13.129-15.63c-4.384-3.825-13.998-10.557-19.824-12.787
				c0.257,0.644,0.841,1.41,1.209,2.166C105.075,54.194,104.883,53.55,106.249,57.601z"/>
			
				<linearGradient id="SVGID_6_" gradientUnits="userSpaceOnUse" x1="3365.0605" y1="99.8086" x2="3411.9712" y2="99.8086" gradientTransform="matrix(-1 0 0 1 3510.2703 0)">
				<stop  offset="0.2515" style="stop-color:#00703C"/>
				<stop  offset="0.8834" style="stop-color:#79AA41"/>
			</linearGradient>
			<path fill-rule="evenodd" clip-rule="evenodd" fill="url(#SVGID_6_)" d="M145.21,118.916c-0.233-0.773-3.063-5.198-3.71-6.282
				c-2.387-3.976-9.192-15.149-12.152-18.019c-3.537-3.411-7.685-5.954-13.284-8.502c-4.137-1.885-12.867-4.875-17.765-5.411
				c0.33,0.395,0.931,0.825,1.377,1.28c1.965,2.03,1.678,1.618,3.575,4.17c1.383,1.859,2.763,3.978,3.999,6.132
				c2.801,4.884,2.987,6.232,6.31,11.165C118.74,111.122,130.641,118.623,145.21,118.916"/>
		</g>
	</g>
</g>
</svg>
